<svg width="120" height="120" viewBox="0 0 120 120" fill="none" xmlns="http://www.w3.org/2000/svg">
  <rect x="10" y="10" width="40" height="40" rx="4" stroke="#5C4DB1" stroke-width="2"/>
  <rect x="20" y="20" width="20" height="20" fill="#5C4DB1"/>
  <rect x="70" y="10" width="40" height="40" rx="4" stroke="#5C4DB1" stroke-width="2"/>
  <rect x="80" y="20" width="20" height="20" fill="#5C4DB1"/>
  <rect x="10" y="70" width="40" height="40" rx="4" stroke="#5C4DB1" stroke-width="2"/>
  <rect x="20" y="80" width="20" height="20" fill="#5C4DB1"/>
  <rect x="70" y="70" width="10" height="10" fill="#5C4DB1"/>
  <rect x="90" y="70" width="10" height="10" fill="#5C4DB1"/>
  <rect x="80" y="80" width="10" height="10" fill="#5C4DB1"/>
  <rect x="100" y="80" width="10" height="10" fill="#5C4DB1"/>
  <rect x="70" y="90" width="10" height="10" fill="#5C4DB1"/>
  <rect x="90" y="90" width="10" height="10" fill="#5C4DB1"/>
  <rect x="80" y="100" width="10" height="10" fill="#5C4DB1"/>
  <rect x="100" y="100" width="10" height="10" fill="#5C4DB1"/>
</svg> 