<svg width="24" height="16" viewBox="0 0 24 16" fill="none" xmlns="http://www.w3.org/2000/svg">
  <rect width="24" height="16" fill="#F5F5F5"/>
  <rect width="24" height="1.23077" fill="#B22234"/>
  <rect y="2.46154" width="24" height="1.23077" fill="#B22234"/>
  <rect y="4.92308" width="24" height="1.23077" fill="#B22234"/>
  <rect y="7.38462" width="24" height="1.23077" fill="#B22234"/>
  <rect y="9.84615" width="24" height="1.23077" fill="#B22234"/>
  <rect y="12.3077" width="24" height="1.23077" fill="#B22234"/>
  <rect y="14.7692" width="24" height="1.23077" fill="#B22234"/>
  <rect width="12" height="8.61538" fill="#3C3B6E"/>
  <circle cx="2" cy="1.5" r="0.5" fill="white"/>
  <circle cx="4" cy="1.5" r="0.5" fill="white"/>
  <circle cx="6" cy="1.5" r="0.5" fill="white"/>
  <circle cx="8" cy="1.5" r="0.5" fill="white"/>
  <circle cx="10" cy="1.5" r="0.5" fill="white"/>
  <circle cx="1" cy="3" r="0.5" fill="white"/>
  <circle cx="3" cy="3" r="0.5" fill="white"/>
  <circle cx="5" cy="3" r="0.5" fill="white"/>
  <circle cx="7" cy="3" r="0.5" fill="white"/>
  <circle cx="9" cy="3" r="0.5" fill="white"/>
  <circle cx="11" cy="3" r="0.5" fill="white"/>
  <circle cx="2" cy="4.5" r="0.5" fill="white"/>
  <circle cx="4" cy="4.5" r="0.5" fill="white"/>
  <circle cx="6" cy="4.5" r="0.5" fill="white"/>
  <circle cx="8" cy="4.5" r="0.5" fill="white"/>
  <circle cx="10" cy="4.5" r="0.5" fill="white"/>
  <circle cx="1" cy="6" r="0.5" fill="white"/>
  <circle cx="3" cy="6" r="0.5" fill="white"/>
  <circle cx="5" cy="6" r="0.5" fill="white"/>
  <circle cx="7" cy="6" r="0.5" fill="white"/>
  <circle cx="9" cy="6" r="0.5" fill="white"/>
  <circle cx="11" cy="6" r="0.5" fill="white"/>
  <circle cx="2" cy="7.5" r="0.5" fill="white"/>
  <circle cx="4" cy="7.5" r="0.5" fill="white"/>
  <circle cx="6" cy="7.5" r="0.5" fill="white"/>
  <circle cx="8" cy="7.5" r="0.5" fill="white"/>
  <circle cx="10" cy="7.5" r="0.5" fill="white"/>
</svg> 